<svg width="36" height="28" viewBox="0 0 36 28" fill="none" xmlns="http://www.w3.org/2000/svg">
<path d="M31.6403 0.714785C31.8621 0.488475 32.1269 0.30869 32.419 0.185954C32.7112 0.0632186 33.0248 0 33.3417 0C33.6586 0 33.9723 0.0632186 34.2644 0.185954C34.5566 0.30869 34.8213 0.488475 35.0431 0.714785C35.9726 1.65404 35.9856 3.17179 35.0756 4.12729L15.8583 26.8448C15.6402 27.0844 15.3754 27.2769 15.0802 27.4107C14.7851 27.5444 14.4657 27.6166 14.1417 27.6226C13.8177 27.6287 13.4959 27.5686 13.1959 27.4461C12.8959 27.3235 12.6241 27.141 12.3971 26.9098L0.703599 15.0603C0.252619 14.6004 0 13.9819 0 13.3378C0 12.6937 0.252619 12.0752 0.703599 11.6153C0.925398 11.389 1.19012 11.2092 1.48226 11.0865C1.7744 10.9637 2.0881 10.9005 2.40497 10.9005C2.72185 10.9005 3.03554 10.9637 3.32769 11.0865C3.61983 11.2092 3.88455 11.389 4.10635 11.6153L14.0253 21.6675L31.5753 0.786286L31.6403 0.714785Z" fill="#E3C05A"/>
</svg>
